<svg xmlns="http://www.w3.org/2000/svg" width="16" height="16" viewBox="0 0 16 16" fill="none">
  <path d="M0 13C0 13.275 0.225 13.5 0.5 13.5H2.55C2.78125 14.6406 3.79063 15.5 5 15.5C6.20937 15.5 7.21875 14.6406 7.45 13.5H15.5C15.775 13.5 16 13.275 16 13C16 12.725 15.775 12.5 15.5 12.5H7.45C7.21875 11.3594 6.20937 10.5 5 10.5C3.79063 10.5 2.78125 11.3594 2.55 12.5H0.5C0.225 12.5 0 12.725 0 13ZM3.5 13C3.5 12.6022 3.65804 12.2206 3.93934 11.9393C4.22064 11.658 4.60218 11.5 5 11.5C5.39782 11.5 5.77936 11.658 6.06066 11.9393C6.34196 12.2206 6.5 12.6022 6.5 13C6.5 13.3978 6.34196 13.7794 6.06066 14.0607C5.77936 14.342 5.39782 14.5 5 14.5C4.60218 14.5 4.22064 14.342 3.93934 14.0607C3.65804 13.7794 3.5 13.3978 3.5 13ZM9.5 8C9.5 7.80302 9.5388 7.60796 9.61418 7.42597C9.68956 7.24399 9.80005 7.07863 9.93934 6.93934C10.0786 6.80005 10.244 6.68956 10.426 6.61418C10.608 6.5388 10.803 6.5 11 6.5C11.197 6.5 11.392 6.5388 11.574 6.61418C11.756 6.68956 11.9214 6.80005 12.0607 6.93934C12.1999 7.07863 12.3104 7.24399 12.3858 7.42597C12.4612 7.60796 12.5 7.80302 12.5 8C12.5 8.19698 12.4612 8.39204 12.3858 8.57403C12.3104 8.75601 12.1999 8.92137 12.0607 9.06066C11.9214 9.19995 11.756 9.31044 11.574 9.38582C11.392 9.4612 11.197 9.5 11 9.5C10.803 9.5 10.608 9.4612 10.426 9.38582C10.244 9.31044 10.0786 9.19995 9.93934 9.06066C9.80005 8.92137 9.68956 8.75601 9.61418 8.57403C9.5388 8.39204 9.5 8.19698 9.5 8ZM11 5.5C9.79062 5.5 8.78125 6.35938 8.55 7.5H0.5C0.225 7.5 0 7.725 0 8C0 8.275 0.225 8.5 0.5 8.5H8.55C8.78125 9.64062 9.79062 10.5 11 10.5C12.2094 10.5 13.2188 9.64062 13.45 8.5H15.5C15.775 8.5 16 8.275 16 8C16 7.725 15.775 7.5 15.5 7.5H13.45C13.2188 6.35938 12.2094 5.5 11 5.5ZM6 4.5C5.60218 4.5 5.22064 4.34196 4.93934 4.06066C4.65804 3.77936 4.5 3.39782 4.5 3C4.5 2.60218 4.65804 2.22064 4.93934 1.93934C5.22064 1.65804 5.60218 1.5 6 1.5C6.39782 1.5 6.77936 1.65804 7.06066 1.93934C7.34196 2.22064 7.5 2.60218 7.5 3C7.5 3.39782 7.34196 3.77936 7.06066 4.06066C6.77936 4.34196 6.39782 4.5 6 4.5ZM8.45 2.5C8.21875 1.35938 7.20937 0.5 6 0.5C4.79063 0.5 3.78125 1.35938 3.55 2.5H0.5C0.225 2.5 0 2.725 0 3C0 3.275 0.225 3.5 0.5 3.5H3.55C3.78125 4.64062 4.79063 5.5 6 5.5C7.20937 5.5 8.21875 4.64062 8.45 3.5H15.5C15.775 3.5 16 3.275 16 3C16 2.725 15.775 2.5 15.5 2.5H8.45Z" fill="#222222"/>
</svg>