<svg width="20" height="20" viewBox="0 0 20 20" fill="none" xmlns="http://www.w3.org/2000/svg">
<path d="M6.2069 1.37931H2.06897C1.68966 1.37931 1.37931 1.68966 1.37931 2.06897V6.2069C1.37931 6.58621 1.68966 6.89655 2.06897 6.89655H6.2069C6.58621 6.89655 6.89655 6.58621 6.89655 6.2069V2.06897C6.89655 1.68966 6.58621 1.37931 6.2069 1.37931ZM2.06897 0H6.2069C7.34914 0 8.27586 0.926724 8.27586 2.06897V6.2069C8.27586 7.34914 7.34914 8.27586 6.2069 8.27586H2.06897C0.926724 8.27586 0 7.34914 0 6.2069V2.06897C0 0.926724 0.926724 0 2.06897 0ZM6.2069 12.4138H2.06897C1.68966 12.4138 1.37931 12.7241 1.37931 13.1034V17.2414C1.37931 17.6207 1.68966 17.931 2.06897 17.931H6.2069C6.58621 17.931 6.89655 17.6207 6.89655 17.2414V13.1034C6.89655 12.7241 6.58621 12.4138 6.2069 12.4138ZM2.06897 11.0345H6.2069C7.34914 11.0345 8.27586 11.9612 8.27586 13.1034V17.2414C8.27586 18.3836 7.34914 19.3103 6.2069 19.3103H2.06897C0.926724 19.3103 0 18.3836 0 17.2414V13.1034C0 11.9612 0.926724 11.0345 2.06897 11.0345ZM13.1034 1.37931C12.7241 1.37931 12.4138 1.68966 12.4138 2.06897V6.2069C12.4138 6.58621 12.7241 6.89655 13.1034 6.89655H17.2414C17.6207 6.89655 17.931 6.58621 17.931 6.2069V2.06897C17.931 1.68966 17.6207 1.37931 17.2414 1.37931H13.1034ZM11.0345 2.06897C11.0345 0.926724 11.9612 0 13.1034 0H17.2414C18.3836 0 19.3103 0.926724 19.3103 2.06897V6.2069C19.3103 7.34914 18.3836 8.27586 17.2414 8.27586H13.1034C11.9612 8.27586 11.0345 7.34914 11.0345 6.2069V2.06897ZM15.1724 10.3448C15.5517 10.3448 15.8621 10.6552 15.8621 11.0345V14.4828H19.3103C19.6897 14.4828 20 14.7931 20 15.1724C20 15.5517 19.6897 15.8621 19.3103 15.8621H15.8621V19.3103C15.8621 19.6897 15.5517 20 15.1724 20C14.7931 20 14.4828 19.6897 14.4828 19.3103V15.8621H11.0345C10.6552 15.8621 10.3448 15.5517 10.3448 15.1724C10.3448 14.7931 10.6552 14.4828 11.0345 14.4828H14.4828V11.0345C14.4828 10.6552 14.7931 10.3448 15.1724 10.3448Z" fill="black"/>
</svg>
