<svg width="25" height="20" viewBox="0 0 25 20" fill="none" xmlns="http://www.w3.org/2000/svg">
<path d="M3.75 3.125C3.75 2.62772 3.94754 2.15081 4.29917 1.79917C4.65081 1.44754 5.12772 1.25 5.625 1.25C6.12228 1.25 6.59919 1.44754 6.95083 1.79917C7.30246 2.15081 7.5 2.62772 7.5 3.125C7.5 3.62228 7.30246 4.09919 6.95083 4.45083C6.59919 4.80246 6.12228 5 5.625 5C5.12772 5 4.65081 4.80246 4.29917 4.45083C3.94754 4.09919 3.75 3.62228 3.75 3.125ZM8.75 3.125C8.75 2.2962 8.42076 1.50134 7.83471 0.915291C7.24866 0.32924 6.4538 0 5.625 0C4.7962 0 4.00134 0.32924 3.41529 0.915291C2.82924 1.50134 2.5 2.2962 2.5 3.125C2.5 3.9538 2.82924 4.74866 3.41529 5.33471C4.00134 5.92076 4.7962 6.25 5.625 6.25C6.4538 6.25 7.24866 5.92076 7.83471 5.33471C8.42076 4.74866 8.75 3.9538 8.75 3.125ZM12.5 6.25C13.163 6.25 13.7989 6.51339 14.2678 6.98223C14.7366 7.45107 15 8.08696 15 8.75C15 9.41304 14.7366 10.0489 14.2678 10.5178C13.7989 10.9866 13.163 11.25 12.5 11.25C11.837 11.25 11.2011 10.9866 10.7322 10.5178C10.2634 10.0489 10 9.41304 10 8.75C10 8.08696 10.2634 7.45107 10.7322 6.98223C11.2011 6.51339 11.837 6.25 12.5 6.25ZM12.5 12.5C12.9925 12.5 13.4801 12.403 13.9351 12.2145C14.39 12.0261 14.8034 11.7499 15.1517 11.4017C15.4999 11.0534 15.7761 10.64 15.9645 10.1851C16.153 9.73009 16.25 9.24246 16.25 8.75C16.25 8.25754 16.153 7.76991 15.9645 7.31494C15.7761 6.85997 15.4999 6.44657 15.1517 6.09835C14.8034 5.75013 14.39 5.47391 13.9351 5.28545C13.4801 5.097 12.9925 5 12.5 5C12.0075 5 11.5199 5.097 11.0649 5.28545C10.61 5.47391 10.1966 5.75013 9.84835 6.09835C9.50013 6.44657 9.22391 6.85997 9.03545 7.31494C8.847 7.76991 8.75 8.25754 8.75 8.75C8.75 9.24246 8.847 9.73009 9.03545 10.1851C9.22391 10.64 9.50013 11.0534 9.84835 11.4017C10.1966 11.7499 10.61 12.0261 11.0649 12.2145C11.5199 12.403 12.0075 12.5 12.5 12.5ZM10.207 15H14.793C16.9102 15 18.6367 16.6602 18.7461 18.75H6.25391C6.36328 16.6602 8.08984 15 10.207 15ZM10.207 13.75C7.33203 13.75 5 16.082 5 18.957C5 19.5312 5.46484 20 6.04297 20H18.957C19.5312 20 20 19.5352 20 18.957C20 16.082 17.668 13.75 14.793 13.75H10.207ZM20 1.25C20.4973 1.25 20.9742 1.44754 21.3258 1.79917C21.6775 2.15081 21.875 2.62772 21.875 3.125C21.875 3.62228 21.6775 4.09919 21.3258 4.45083C20.9742 4.80246 20.4973 5 20 5C19.5027 5 19.0258 4.80246 18.6742 4.45083C18.3225 4.09919 18.125 3.62228 18.125 3.125C18.125 2.62772 18.3225 2.15081 18.6742 1.79917C19.0258 1.44754 19.5027 1.25 20 1.25ZM20 6.25C20.8288 6.25 21.6237 5.92076 22.2097 5.33471C22.7958 4.74866 23.125 3.9538 23.125 3.125C23.125 2.2962 22.7958 1.50134 22.2097 0.915291C21.6237 0.32924 20.8288 0 20 0C19.1712 0 18.3763 0.32924 17.7903 0.915291C17.2042 1.50134 16.875 2.2962 16.875 3.125C16.875 3.9538 17.2042 4.74866 17.7903 5.33471C18.3763 5.92076 19.1712 6.25 20 6.25ZM20.625 8.75C22.3516 8.75 23.75 10.1484 23.75 11.875C23.75 12.2188 24.0312 12.5 24.375 12.5C24.7188 12.5 25 12.2188 25 11.875C25 9.45703 23.043 7.5 20.625 7.5H17.3438C17.4453 7.89844 17.5 8.32031 17.5 8.75H20.625ZM7.5 8.75C7.5 8.32031 7.55469 7.89844 7.65625 7.5H4.375C1.95703 7.5 0 9.45703 0 11.875C0 12.2188 0.28125 12.5 0.625 12.5C0.96875 12.5 1.25 12.2188 1.25 11.875C1.25 10.1484 2.64844 8.75 4.375 8.75H7.5Z" fill="#222222"/>
</svg>
