<svg width="20" height="16" viewBox="0 0 20 16" fill="none" xmlns="http://www.w3.org/2000/svg">
<path d="M3 2.5C3 2.10218 3.15804 1.72064 3.43934 1.43934C3.72064 1.15804 4.10218 1 4.5 1C4.89782 1 5.27936 1.15804 5.56066 1.43934C5.84196 1.72064 6 2.10218 6 2.5C6 2.89782 5.84196 3.27936 5.56066 3.56066C5.27936 3.84196 4.89782 4 4.5 4C4.10218 4 3.72064 3.84196 3.43934 3.56066C3.15804 3.27936 3 2.89782 3 2.5ZM7 2.5C7 1.83696 6.73661 1.20107 6.26777 0.732233C5.79893 0.263392 5.16304 0 4.5 0C3.83696 0 3.20107 0.263392 2.73223 0.732233C2.26339 1.20107 2 1.83696 2 2.5C2 3.16304 2.26339 3.79893 2.73223 4.26777C3.20107 4.73661 3.83696 5 4.5 5C5.16304 5 5.79893 4.73661 6.26777 4.26777C6.73661 3.79893 7 3.16304 7 2.5ZM10 5C10.5304 5 11.0391 5.21071 11.4142 5.58579C11.7893 5.96086 12 6.46957 12 7C12 7.53043 11.7893 8.03914 11.4142 8.41421C11.0391 8.78929 10.5304 9 10 9C9.46957 9 8.96086 8.78929 8.58579 8.41421C8.21071 8.03914 8 7.53043 8 7C8 6.46957 8.21071 5.96086 8.58579 5.58579C8.96086 5.21071 9.46957 5 10 5ZM10 10C10.394 10 10.7841 9.9224 11.1481 9.77164C11.512 9.62087 11.8427 9.3999 12.1213 9.12132C12.3999 8.84274 12.6209 8.51203 12.7716 8.14805C12.9224 7.78407 13 7.39397 13 7C13 6.60603 12.9224 6.21593 12.7716 5.85195C12.6209 5.48797 12.3999 5.15726 12.1213 4.87868C11.8427 4.6001 11.512 4.37913 11.1481 4.22836C10.7841 4.0776 10.394 4 10 4C9.60603 4 9.21593 4.0776 8.85195 4.22836C8.48797 4.37913 8.15726 4.6001 7.87868 4.87868C7.6001 5.15726 7.37913 5.48797 7.22836 5.85195C7.0776 6.21593 7 6.60603 7 7C7 7.39397 7.0776 7.78407 7.22836 8.14805C7.37913 8.51203 7.6001 8.84274 7.87868 9.12132C8.15726 9.3999 8.48797 9.62087 8.85195 9.77164C9.21593 9.9224 9.60603 10 10 10ZM8.16562 12H11.8344C13.5281 12 14.9094 13.3281 14.9969 15H5.00313C5.09063 13.3281 6.47187 12 8.16562 12ZM8.16562 11C5.86562 11 4 12.8656 4 15.1656C4 15.625 4.37187 16 4.83437 16H15.1656C15.625 16 16 15.6281 16 15.1656C16 12.8656 14.1344 11 11.8344 11H8.16562ZM16 1C16.3978 1 16.7794 1.15804 17.0607 1.43934C17.342 1.72064 17.5 2.10218 17.5 2.5C17.5 2.89782 17.342 3.27936 17.0607 3.56066C16.7794 3.84196 16.3978 4 16 4C15.6022 4 15.2206 3.84196 14.9393 3.56066C14.658 3.27936 14.5 2.89782 14.5 2.5C14.5 2.10218 14.658 1.72064 14.9393 1.43934C15.2206 1.15804 15.6022 1 16 1ZM16 5C16.663 5 17.2989 4.73661 17.7678 4.26777C18.2366 3.79893 18.5 3.16304 18.5 2.5C18.5 1.83696 18.2366 1.20107 17.7678 0.732233C17.2989 0.263392 16.663 0 16 0C15.337 0 14.7011 0.263392 14.2322 0.732233C13.7634 1.20107 13.5 1.83696 13.5 2.5C13.5 3.16304 13.7634 3.79893 14.2322 4.26777C14.7011 4.73661 15.337 5 16 5ZM16.5 7C17.8813 7 19 8.11875 19 9.5C19 9.775 19.225 10 19.5 10C19.775 10 20 9.775 20 9.5C20 7.56563 18.4344 6 16.5 6H13.875C13.9563 6.31875 14 6.65625 14 7H16.5ZM6 7C6 6.65625 6.04375 6.31875 6.125 6H3.5C1.56562 6 0 7.56563 0 9.5C0 9.775 0.225 10 0.5 10C0.775 10 1 9.775 1 9.5C1 8.11875 2.11875 7 3.5 7H6Z" fill="white"/>
</svg>
